:FULLY-SPECIFIED
:FORCE-ALL-JOINTS-BE-3DOF
:DEGREES
849
root 3.86734 16.3225 28.1526 -9.30157 6.94191 -0.685753
lfemur -22.7167 0.893808 -17.3327
ltibia 36.9366 -0 0
lfoot -7.17727 -13.1951 -0.0214961
ltoes 2.94385 -0 0
rfemur -34.4692 -3.31386 1.11986
rtibia 101.987 -0 0
rfoot 35.3168 20.169 0.301599
rtoes -3.68729 0 0
lowerback 4.18544 2.96329 -2.69865
upperback 1.06095 3.8393 0.304041
thorax -1.43524 1.9293 1.65202
lowerneck -6.3247 -3.75833 2.48365
upperneck 9.03682 -5.44193 1.39311
head 4.05582 -2.53346 -0.270052
lclavicle 2.65129e-014 -1.59028e-014 0
lhumerus -50.3403 -10.5673 84.23
lradius 55.6834 -0 0
lwrist 20.9323 0 0
lhand -2.67466 3.57247 0.00515213
lfingers 7.12502 -0 0
lthumb 23.0246 32.2009 -0.000621985
rclavicle 2.65129e-014 -1.59028e-014 0
rhumerus -38.7901 14.3876 -66.6137
rradius 51.0486 -0 0
rwrist 8.98069 0 0
rhand -35.3826 -32.4347 0.0299192
rfingers 7.12502 -0 0
rthumb -8.51317 -62.208 0.0270253
850
root 3.87601 16.3424 28.2371 -9.87906 7.93602 -0.631469
lfemur -21.7776 1.25594 -17.601
ltibia 36.6919 -0 0
lfoot -6.96734 -14.3665 -0.0387041
ltoes 4.67504 -0 0
rfemur -36.9035 -3.05206 1.37144
rtibia 99.9789 -0 0
rfoot 33.5518 18.2269 0.543647
rtoes -2.77956 0 0
lowerback 4.96634 2.57888 -2.8684
upperback 1.33804 3.29622 0.193343
thorax -1.54971 1.65888 1.67085
lowerneck -6.29297 -3.73218 2.47453
upperneck 8.98763 -5.41715 1.53342
head 4.0371 -2.51603 -0.219486
lclavicle 2.65129e-014 -1.59028e-014 0
lhumerus -49.2743 -11.4575 83.9809
lradius 55.5625 -0 0
lwrist 21.1216 0 0
lhand -1.98835 3.65845 0.00927473
lfingers 7.12502 -0 0
lthumb 23.6817 32.19 -0.00111967
rclavicle 2.65129e-014 -1.59028e-014 0
rhumerus -39.6693 13.2999 -65.7309
rradius 51.1223 -0 0
rwrist 8.35812 0 0
rhand -34.1294 -32.1617 0.0538726
rfingers 7.12502 -0 0
rthumb -7.30314 -61.9526 0.0486608
851
root 3.88467 16.3624 28.3216 -10.4571 8.93061 -0.58719
lfemur -20.8401 1.62241 -17.8634
ltibia 36.4473 -0 0
lfoot -6.75711 -15.538 -0.0516167
ltoes 6.40624 -0 0
rfemur -39.3362 -2.77983 1.61161
rtibia 97.9704 -0 0
rfoot 31.7795 16.2782 0.725635
rtoes -1.87184 0 0
lowerback 5.74816 2.19682 -3.04333
upperback 1.61604 2.75369 0.0800728
thorax -1.66425 1.3885 1.69021
lowerneck -6.26124 -3.70602 2.46542
upperneck 8.93851 -5.39224 1.6737
head 4.01839 -2.49858 -0.168926
lclavicle 2.65129e-014 -1.59028e-014 0
lhumerus -48.201 -12.3429 83.7141
lradius 55.4417 -0 0
lwrist 21.3108 0 0
lhand -1.30203 3.74446 0.0123672
lfingers 7.12502 -0 0
lthumb 24.3388 32.1792 -0.00149299
rclavicle 2.65129e-014 -1.59028e-014 0
rhumerus -40.5617 12.2257 -64.8348
rradius 51.1961 -0 0
rwrist 7.73555 0 0
rhand -32.8762 -31.8881 0.0718481
rfingers 7.12502 -0 0
rthumb -6.09302 -61.6967 0.0648961
852
root 3.89333 16.3823 28.4061 -11.036 9.9256 -0.552972
lfemur -19.904 1.99312 -18.1198
ltibia 36.2026 -0 0
lfoot -6.54665 -16.7096 -0.0602281
ltoes 8.13743 -0 0
rfemur -41.7671 -2.49767 1.83994
rtibia 95.9618 -0 0
rfoot 30.0021 14.3247 0.847177
rtoes -0.964107 0 0
lowerback 6.53095 1.81718 -3.22342
upperback 1.89501 2.21172 -0.0357842
thorax -1.77886 1.11816 1.71011
lowerneck -6.22952 -3.67986 2.45632
upperneck 8.88944 -5.36722 1.81396
head 3.9997 -2.48112 -0.118373
lclavicle 2.65129e-014 -1.59028e-014 0
lhumerus -47.1196 -13.2233 83.4293
lradius 55.3209 -0 0
lwrist 21.5 0 0
lhand -0.615709 3.83051 0.0144291
lfingers 7.12502 -0 0
lthumb 24.9959 32.1683 -0.0017419
rclavicle 2.65129e-014 -1.59028e-014 0
rhumerus -41.4677 11.1653 -63.9253
rradius 51.2699 -0 0
rwrist 7.11298 0 0
rhand -31.6228 -31.6143 0.0838368
rfingers 7.12502 -0 0
rthumb -4.88284 -61.4405 0.0757239
